<?xml version="1.0" encoding="utf-8"?>
<!-- Generator: Adobe Illustrator 22.0.0, SVG Export Plug-In . SVG Version: 6.00 Build 0)  -->
<svg version="1.1" id="Layer_1" xmlns="http://www.w3.org/2000/svg" xmlns:xlink="http://www.w3.org/1999/xlink" x="0px" y="0px"
	 viewBox="0 0 30 30" style="enable-background:new 0 0 30 30;" xml:space="preserve">
<style type="text/css">
	.st0{fill:#FFFFFF;}
</style>
<path class="st0" d="M25.9,14.4c-0.4,0-0.8,0.1-1.2,0.3c-0.1-2.3-2-4.1-4.3-4.1c-0.6,0-1.1,0.1-1.6,0.3c-0.7-1.8-2.5-3.1-4.6-3.1
	c-2.7,0-4.8,2.1-4.9,4.7c0,0,0,0,0,0c-2,0-3.7,1.6-3.7,3.7s1.6,3.7,3.7,3.7h16.6c1.5,0,2.7-1.2,2.7-2.7
	C28.6,15.6,27.4,14.4,25.9,14.4z"/>
</svg>
